<svg enable-background="new 0 0 720 577.17" viewBox="0 0 720 577.17" xmlns="http://www.w3.org/2000/svg"><g fill="#012169"><path d="m44.95 240.68c-5.07 0-11.2.37-17 .73-5.8.37-11.2.73-15.67.73-1.8 0-6.5 0-6.5-3.6 0-2.9 2.61-6.14 13.37-7.84 7.84-1.44 16.27-2.61 16.27-23.51v-170.09c0-6.87-15.2-6.14-24.58-6.87-8.31-.73-10.84-.73-10.84-4.7 0-6.14 9.77-6.14 14.1-6.14h32.91c9.04 0 17.71-.73 26.77-1.1s19.54-1.1 31.11-1.1c75.95 0 137.4 37.61 137.4 124.76 0 54.25-49.91 98.72-112.09 98.72h-85.25zm21.7-45.18c0 25.31 22.77 36.56 46.28 36.56 28.21 0 95.46-23.51 95.46-96.92 0-74.12-66.55-107.08-111.36-107.08-29.64 0-30.38 6.5-30.38 11.57z"/><path d="m272.93 196.39c0-22.07.73-55.73.73-77.1 0-5.07-6.16-5.8-10.45-6.87-8.7-2.17-10.87-2.9-10.87-5.43 0-3.26 3.97-3.26 9.04-3.26s10.13.73 15.67.73 10.45-.73 15.93-.73c4.7 0 5.43 1.8 5.43 6.87 0 32.2-.73 64.43-.73 96.63 0 14.83 10.86 23.17 28.6 23.17 40.17 0 43.07-17 43.43-31.86 0-25.7.73-51.76.73-77.46 0-4.34-1.8-4.34-18.83-8.7-2.9-.73-10.45-2.9-10.45-5.8 0-2.17 3.97-2.9 7.84-2.9 6.16 0 12.3.73 18.47.73 7.23 0 14.1-.73 21.36-.73 3.9-.3 7.3 2.62 7.6 6.51.03.36.03.73 0 1.09 0 36.56-1.44 73.13-1.44 109.69 0 7.6 6.16 8.7 9.4 8.7 14.1 0 18.83 0 18.83 3.63 0 2.9-1.8 3.63-7.23 4.34-25.33 3.97-40.17 7.23-43.43 7.23s-2.9-2.61-2.9-5.8v-8.31c0-2.9-.73-4.34-2.61-4.34-5.8 0-21.36 21.36-50.67 21.36-34.05 0-43.45-20.63-43.45-51.39z"/><path d="m453.92 35.11c0-19.17-17.73-13.06-17.73-19.9 0-2.61 2.61-3.26 7.6-5.07l24.55-9.38c1.98-.62 4.06-.87 6.14-.73 1.8 0 3.97 1.1 3.97 6.5v148.67c0 3.97.73 5.8 3.26 5.8 3.6 0 58.95-32.54 58.95-39.18 0-9.4-13.74-9.4-13.74-14.83 0-1.8 2.9-3.6 5.07-3.6 7.6 0 18.44.73 27.84.73s19.9-.73 27.14-.73c3.26 0 6.87.73 6.87 4.34 0 3.6-12.67 6.5-17.73 8.67-10.45 4.7-69.81 39.18-69.81 43.04.19 2.03 1.25 3.87 2.9 5.07l62.68 56.78c14.83 13.37 28.57 12.3 28.57 17.37 0 1.8-3.6 3.6-9.4 3.6-7.6 0-17-1.44-27.84-1.44-9.4 0-18.07 1.44-26.77 1.44-7.6 0-10.84-.37-10.84-3.6 0-3.24 4.34-4.34 10.45-5.07 3.6-.37 6.87-2.61 6.87-5.07 0-1.8-1.8-3.6-3.97-5.8l-54.61-51.61c-.87-1.01-2-1.76-3.26-2.17-1.44 0-2.61.37-2.61 1.8v51.37c-.52 5.24 2.77 10.11 7.84 11.57 5.8 1.8 10.45 1.8 10.45 5.07 0 3.26-4.7 3.6-8.31 3.6-8.67 0-16.27-1.44-24.24-1.44-8.67 0-19.9 1.44-26.12 1.44-2.17 0-8.67-.37-8.67-3.6 0-3.24 2.9-3.97 6.5-5.07 10.13-2.9 17.73-1.8 17.73-17z"/><path d="m624.38 157c-.73 4.18-.97 8.43-.73 12.67 0 30.43 8.33 60.51 52.52 60.51 27.89 0 28.73-14.5 34.42-14.5 1.62-.16 3.07 1.03 3.23 2.65.01.08.01.17.01.25 0 2.61-15.23 28.99-52.89 28.99-39.85 0-62.68-28.26-62.68-73.55 0-33.95 20.89-76.45 65.95-76.45 29.38-.92 54.13 21.74 55.79 51.09 0 6.53-1.1 8.33-7.23 8.33h-88.39zm71.75-28.73c0-12.33-11.6-22.1-26.8-22.1-26.12 0-41.79 25.36-41.79 36.56 0 2.61.73 3.26 31.52 3.26 31.99.1 37.06-4.6 37.06-17.63v-.09z"/><path d="m1.66 324.95h715.29v4.96h-715.29z"/><path d="m40.06 427.98c0 6.06-1.98 10.7-5.95 13.92-3.97 3.23-9.61 4.84-16.94 4.84h-6.03v21.7h-9.48v-57.99h16.7c7.25 0 12.67 1.48 16.28 4.44s5.42 7.33 5.42 13.09zm-28.92 10.79h5.04c4.87 0 8.44-.85 10.71-2.54s3.41-4.34 3.41-7.93c0-3.33-1.02-5.82-3.05-7.46-2.04-1.64-5.21-2.46-9.52-2.46h-6.58v20.39z"/><path d="m61.93 445.28v23.17h-9.48v-57.99h16.38c7.48 0 13.02 1.4 16.62 4.2s5.39 7.03 5.39 12.69c0 7.22-3.76 12.36-11.27 15.43l16.38 25.66h-10.77l-13.88-23.17h-9.37zm0-7.86h6.58c4.42 0 7.62-.82 9.6-2.46s2.98-4.07 2.98-7.3c0-3.28-1.07-5.63-3.21-7.06s-5.37-2.14-9.68-2.14h-6.27z"/><path d="m146.04 468.44-5.79-16.1h-22.17l-5.67 16.1h-10l21.7-58.23h10.31l21.7 58.23zm-8.29-24.27-5.43-15.79c-.4-1.06-.95-2.72-1.65-5s-1.18-3.94-1.45-5c-.71 3.25-1.76 6.81-3.13 10.67l-5.24 15.11h16.9z"/><path d="m181.37 468.44h-9.48v-49.86h-17.06v-8.13h43.59v8.13h-17.06v49.86z"/><path d="m231.4 468.44h-9.48v-49.86h-17.06v-8.13h43.59v8.13h-17.05z"/><path d="m320.01 452.7c0 5.16-1.86 9.2-5.59 12.14s-8.87 4.4-15.43 4.4-11.93-1.02-16.1-3.05v-8.96c2.64 1.24 5.45 2.22 8.43 2.94 2.98.71 5.75 1.07 8.31 1.07 3.76 0 6.53-.71 8.31-2.14 1.79-1.43 2.68-3.35 2.68-5.75 0-2.17-.82-4.01-2.46-5.51s-5.02-3.29-10.15-5.36c-5.29-2.14-9.02-4.59-11.19-7.34s-3.25-6.06-3.25-9.92c0-4.84 1.72-8.65 5.16-11.42s8.05-4.17 13.84-4.17c5.55 0 11.08 1.22 16.58 3.65l-3.01 7.74c-5.16-2.17-9.76-3.25-13.8-3.25-3.07 0-5.39.67-6.98 2-1.59 1.34-2.38 3.1-2.38 5.3 0 1.51.32 2.8.95 3.87s1.68 2.08 3.13 3.03 4.07 2.21 7.85 3.77c4.26 1.77 7.38 3.42 9.36 4.96 1.98 1.53 3.44 3.27 4.36 5.2.92 1.9 1.38 4.18 1.38 6.8z"/><path d="m358.35 417.75c-5.45 0-9.73 1.93-12.85 5.79s-4.68 9.19-4.68 15.99c0 7.11 1.5 12.5 4.5 16.14 3 3.65 7.35 5.47 13.03 5.47 2.46 0 4.84-.24 7.14-.73s4.69-1.12 7.18-1.88v8.13c-4.55 1.72-9.71 2.58-15.47 2.58-8.49 0-15.01-2.57-19.56-7.72-4.55-5.14-6.82-12.5-6.82-22.07 0-6.03 1.1-11.31 3.31-15.83s5.4-7.99 9.58-10.39c4.18-2.41 9.08-3.61 14.72-3.61 5.92 0 11.4 1.24 16.42 3.73l-3.41 7.89c-1.96-.93-4.03-1.74-6.21-2.44s-4.48-1.05-6.88-1.05z"/><path d="m431.71 468.44h-9.52v-26.14h-26.74v26.14h-9.48v-57.99h9.48v23.72h26.74v-23.72h9.52z"/><path d="m499.28 439.37c0 9.44-2.36 16.78-7.08 22.02s-11.4 7.85-20.05 7.85c-8.75 0-15.48-2.6-20.17-7.79s-7.04-12.58-7.04-22.15 2.36-16.92 7.08-22.06c4.72-5.13 11.46-7.7 20.21-7.7 8.62 0 15.29 2.6 19.99 7.81 4.71 5.21 7.06 12.55 7.06 22.02zm-44.27 0c0 7.14 1.44 12.55 4.32 16.24s7.15 5.53 12.81 5.53c5.63 0 9.88-1.82 12.75-5.47s4.3-9.08 4.3-16.3c0-7.11-1.42-12.51-4.26-16.18-2.84-3.68-7.08-5.51-12.71-5.51-5.69 0-9.98 1.84-12.87 5.51s-4.34 9.06-4.34 16.18z"/><path d="m562.41 439.37c0 9.44-2.36 16.78-7.08 22.02s-11.4 7.85-20.05 7.85c-8.75 0-15.48-2.6-20.17-7.79s-7.04-12.58-7.04-22.15 2.36-16.92 7.08-22.06c4.72-5.13 11.46-7.7 20.21-7.7 8.62 0 15.29 2.6 19.99 7.81 4.71 5.21 7.06 12.55 7.06 22.02zm-44.26 0c0 7.14 1.44 12.55 4.32 16.24s7.15 5.53 12.81 5.53c5.63 0 9.88-1.82 12.75-5.47s4.3-9.08 4.3-16.3c0-7.11-1.42-12.51-4.26-16.18s-7.08-5.51-12.71-5.51c-5.69 0-9.98 1.84-12.87 5.51-2.9 3.67-4.34 9.06-4.34 16.18z"/><path d="m577.31 468.44v-57.99h9.48v49.86h24.55v8.13z"/><path d="m661.11 424.41c5.02 0 8.99 1.49 11.9 4.46 2.91 2.98 4.36 7.07 4.36 12.28 0 4.97-.95 9.67-2.86 14.08-1.9 4.42-4.48 7.83-7.74 10.23-3.25 2.41-6.93 3.61-11.03 3.61-5.08 0-9.06-1.49-11.94-4.48s-4.32-7.07-4.32-12.26c0-5.02.97-9.75 2.9-14.18s4.54-7.83 7.81-10.19 6.92-3.55 10.92-3.55zm9.36 15.83c0-3.04-.83-5.51-2.48-7.4s-3.89-2.84-6.72-2.84c-2.88 0-5.47.98-7.76 2.94s-4.06 4.67-5.32 8.15-1.88 7.35-1.88 11.6c0 3.46.84 6.14 2.52 8.03s4.09 2.84 7.24 2.84c2.75 0 5.22-.97 7.42-2.9 2.19-1.93 3.91-4.67 5.14-8.23 1.22-3.55 1.84-7.62 1.84-12.19z"/><path d="m677.05 487.96c-1.82 0-3.48-.28-4.96-.83v-5.59c1.69.58 3.17.87 4.44.87 2.01 0 3.56-.82 4.64-2.46s1.96-3.98 2.62-7.02l9-42.92h-7.66l.52-2.66 8.17-2.62.91-3.97c1.22-5.29 2.9-9.02 5.06-11.21 2.16-2.18 5.35-3.27 9.58-3.27 1.06 0 2.35.15 3.89.46 1.53.3 2.72.64 3.57 1.01l-1.71 5.12c-2.01-.77-3.82-1.15-5.43-1.15-2.3 0-4.07.64-5.3 1.92s-2.23 3.63-2.99 7.04l-.99 4.28h9.44l-.99 5.04h-9.4l-9.2 43.55c-1.03 5-2.62 8.65-4.76 10.95-2.14 2.31-4.96 3.46-8.45 3.46z"/><path d="m40.45 576.23h-38.79v-68.58h38.79v9.48h-27.58v18.67h25.85v9.38h-25.85v21.53h27.58z"/><path d="m121.54 576.23h-13.74l-33.73-54.65h-.38l.23 3.05c.44 5.82.66 11.13.66 15.95v35.65h-10.18v-68.58h13.6l33.63 54.37h.28c-.06-.72-.19-3.34-.38-7.86s-.28-8.05-.28-10.58v-35.93h10.27v68.58z"/><path d="m171.06 539.03h25.24v34.43c-4.13 1.34-8.09 2.3-11.89 2.86s-7.9.84-12.31.84c-10.38 0-18.39-3.07-24.02-9.22s-8.44-14.82-8.44-26.01c0-11.04 3.17-19.68 9.52-25.92s15.09-9.36 26.22-9.36c7.16 0 13.95 1.38 20.36 4.13l-3.94 9.34c-5.57-2.56-11.13-3.85-16.7-3.85-7.32 0-13.1 2.3-17.36 6.9s-6.38 10.88-6.38 18.86c0 8.38 1.92 14.75 5.75 19.12s9.34 6.54 16.54 6.54c3.63 0 7.51-.45 11.63-1.36v-17.69h-14.21v-9.61z"/><path d="m223.81 576.23v-68.58h11.21v68.58z"/><path d="m321.31 576.23h-13.74l-33.73-54.65h-.38l.23 3.05c.44 5.82.66 11.13.66 15.95v35.65h-10.18v-68.58h13.6l33.63 54.37h.28c-.06-.72-.19-3.34-.38-7.86s-.28-8.05-.28-10.58v-35.93h10.27v68.58z"/><path d="m387.35 576.23h-38.8v-68.58h38.8v9.48h-27.58v18.67h25.85v9.38h-25.85v21.53h27.58z"/><path d="m450.09 576.23h-38.79v-68.58h38.79v9.48h-27.58v18.67h25.85v9.38h-25.85v21.53h27.58z"/><path d="m483.34 548.83v27.4h-11.21v-68.58h19.37c8.85 0 15.4 1.66 19.66 4.97 4.25 3.31 6.38 8.32 6.38 15.01 0 8.54-4.44 14.62-13.32 18.25l19.37 30.35h-12.76l-16.42-27.4zm0-9.28h7.79c5.22 0 9.01-.97 11.35-2.91s3.52-4.82 3.52-8.63c0-3.88-1.27-6.66-3.8-8.35s-6.35-2.53-11.45-2.53h-7.41z"/><path d="m544.58 576.23v-68.58h11.21v68.58z"/><path d="m642.08 576.23h-13.74l-33.73-54.65h-.38l.23 3.05c.44 5.82.66 11.13.66 15.95v35.65h-10.18v-68.58h13.6l33.63 54.37h.28c-.06-.72-.19-3.34-.38-7.86s-.28-8.05-.28-10.58v-35.93h10.27v68.58z"/><path d="m691.6 539.03h25.24v34.43c-4.13 1.34-8.09 2.3-11.89 2.86s-7.9.84-12.31.84c-10.38 0-18.39-3.07-24.02-9.22s-8.44-14.82-8.44-26.01c0-11.04 3.17-19.68 9.52-25.92s15.09-9.36 26.22-9.36c7.16 0 13.95 1.38 20.36 4.13l-3.94 9.34c-5.57-2.56-11.13-3.85-16.7-3.85-7.32 0-13.1 2.3-17.36 6.9s-6.38 10.88-6.38 18.86c0 8.38 1.92 14.75 5.75 19.12 3.83 4.36 9.34 6.54 16.54 6.54 3.63 0 7.51-.45 11.63-1.36v-17.69h-14.22z"/></g></svg>